<mxfile host="app.diagrams.net" modified="2024-04-19T12:03:05.275Z" agent="Mozilla/5.0 (Windows NT 10.0; Win64; x64) AppleWebKit/537.36 (KHTML, like Gecko) Chrome/124.0.0.0 Safari/537.36 Edg/124.0.0.0" etag="nemTp8z4mnSFUUfjehQ1" version="24.2.5" type="github">
  <diagram name="PÃ¡gina-1" id="COj6trOzwYDIUC7h_TjG">
    <mxGraphModel dx="1066" dy="613" grid="1" gridSize="10" guides="1" tooltips="1" connect="1" arrows="1" fold="1" page="1" pageScale="1" pageWidth="827" pageHeight="1169" math="0" shadow="0">
      <root>
        <mxCell id="0" />
        <mxCell id="1" parent="0" />
        <mxCell id="rrnx5CU0nArCDklfMQSh-1" value="USUARIO" style="rounded=0;whiteSpace=wrap;html=1;" parent="1" vertex="1">
          <mxGeometry x="70" y="160" width="100" height="40" as="geometry" />
        </mxCell>
        <mxCell id="rrnx5CU0nArCDklfMQSh-2" value="LOGIN" style="rounded=0;whiteSpace=wrap;html=1;" parent="1" vertex="1">
          <mxGeometry x="350" y="160" width="100" height="40" as="geometry" />
        </mxCell>
        <mxCell id="rrnx5CU0nArCDklfMQSh-3" value="CAMPO" style="rounded=0;whiteSpace=wrap;html=1;" parent="1" vertex="1">
          <mxGeometry x="620" y="340" width="100" height="40" as="geometry" />
        </mxCell>
        <mxCell id="rrnx5CU0nArCDklfMQSh-4" value="SITUACAO" style="rounded=0;whiteSpace=wrap;html=1;" parent="1" vertex="1">
          <mxGeometry x="620" y="160" width="100" height="40" as="geometry" />
        </mxCell>
        <mxCell id="rrnx5CU0nArCDklfMQSh-5" value="ALIMENTO" style="rounded=0;whiteSpace=wrap;html=1;" parent="1" vertex="1">
          <mxGeometry x="350" y="340" width="100" height="40" as="geometry" />
        </mxCell>
        <mxCell id="rrnx5CU0nArCDklfMQSh-6" value="CRT_ALIMENTO" style="rounded=0;whiteSpace=wrap;html=1;" parent="1" vertex="1">
          <mxGeometry x="80" y="340" width="100" height="40" as="geometry" />
        </mxCell>
        <mxCell id="rrnx5CU0nArCDklfMQSh-7" value="LOCALIZACAO" style="rounded=0;whiteSpace=wrap;html=1;" parent="1" vertex="1">
          <mxGeometry x="514" y="510" width="100" height="40" as="geometry" />
        </mxCell>
        <mxCell id="rrnx5CU0nArCDklfMQSh-8" value="possui" style="rhombus;whiteSpace=wrap;html=1;" parent="1" vertex="1">
          <mxGeometry x="220" y="165" width="80" height="30" as="geometry" />
        </mxCell>
        <mxCell id="rrnx5CU0nArCDklfMQSh-9" value="visualiza" style="rhombus;whiteSpace=wrap;html=1;" parent="1" vertex="1">
          <mxGeometry x="500" y="165" width="80" height="30" as="geometry" />
        </mxCell>
        <mxCell id="rrnx5CU0nArCDklfMQSh-10" value="tem" style="rhombus;whiteSpace=wrap;html=1;" parent="1" vertex="1">
          <mxGeometry x="730" y="250" width="80" height="30" as="geometry" />
        </mxCell>
        <mxCell id="rrnx5CU0nArCDklfMQSh-11" value="esta" style="rhombus;whiteSpace=wrap;html=1;" parent="1" vertex="1">
          <mxGeometry x="630" y="420" width="80" height="30" as="geometry" />
        </mxCell>
        <mxCell id="rrnx5CU0nArCDklfMQSh-12" value="adquire" style="rhombus;whiteSpace=wrap;html=1;" parent="1" vertex="1">
          <mxGeometry x="500" y="345" width="80" height="30" as="geometry" />
        </mxCell>
        <mxCell id="rrnx5CU0nArCDklfMQSh-13" value="tem" style="rhombus;whiteSpace=wrap;html=1;" parent="1" vertex="1">
          <mxGeometry x="230" y="345" width="80" height="30" as="geometry" />
        </mxCell>
        <mxCell id="rrnx5CU0nArCDklfMQSh-14" value="" style="ellipse;whiteSpace=wrap;html=1;aspect=fixed;fillColor=#000000;" parent="1" vertex="1">
          <mxGeometry x="65" y="122" width="10" height="10" as="geometry" />
        </mxCell>
        <mxCell id="rrnx5CU0nArCDklfMQSh-15" value="" style="endArrow=none;html=1;rounded=0;entryX=0.5;entryY=1;entryDx=0;entryDy=0;exitX=0;exitY=0;exitDx=0;exitDy=0;" parent="1" source="rrnx5CU0nArCDklfMQSh-1" target="rrnx5CU0nArCDklfMQSh-14" edge="1">
          <mxGeometry width="50" height="50" relative="1" as="geometry">
            <mxPoint x="120" y="190" as="sourcePoint" />
            <mxPoint x="170" y="140" as="targetPoint" />
          </mxGeometry>
        </mxCell>
        <mxCell id="rrnx5CU0nArCDklfMQSh-16" value="" style="ellipse;whiteSpace=wrap;html=1;aspect=fixed;" parent="1" vertex="1">
          <mxGeometry x="90" y="122" width="10" height="10" as="geometry" />
        </mxCell>
        <mxCell id="rrnx5CU0nArCDklfMQSh-17" value="" style="endArrow=none;html=1;rounded=0;entryX=0.5;entryY=1;entryDx=0;entryDy=0;exitX=0.25;exitY=0;exitDx=0;exitDy=0;" parent="1" source="rrnx5CU0nArCDklfMQSh-1" target="rrnx5CU0nArCDklfMQSh-16" edge="1">
          <mxGeometry width="50" height="50" relative="1" as="geometry">
            <mxPoint x="120" y="170" as="sourcePoint" />
            <mxPoint x="170" y="120" as="targetPoint" />
          </mxGeometry>
        </mxCell>
        <mxCell id="rrnx5CU0nArCDklfMQSh-18" value="" style="ellipse;whiteSpace=wrap;html=1;aspect=fixed;" parent="1" vertex="1">
          <mxGeometry x="115" y="122" width="10" height="10" as="geometry" />
        </mxCell>
        <mxCell id="rrnx5CU0nArCDklfMQSh-19" value="" style="endArrow=none;html=1;rounded=0;entryX=0.5;entryY=1;entryDx=0;entryDy=0;exitX=0.5;exitY=0;exitDx=0;exitDy=0;" parent="1" source="rrnx5CU0nArCDklfMQSh-1" target="rrnx5CU0nArCDklfMQSh-18" edge="1">
          <mxGeometry width="50" height="50" relative="1" as="geometry">
            <mxPoint x="150" y="170" as="sourcePoint" />
            <mxPoint x="200" y="120" as="targetPoint" />
          </mxGeometry>
        </mxCell>
        <mxCell id="rrnx5CU0nArCDklfMQSh-20" value="" style="ellipse;whiteSpace=wrap;html=1;aspect=fixed;" parent="1" vertex="1">
          <mxGeometry x="140" y="122" width="10" height="10" as="geometry" />
        </mxCell>
        <mxCell id="rrnx5CU0nArCDklfMQSh-21" value="" style="endArrow=none;html=1;rounded=0;entryX=0.5;entryY=1;entryDx=0;entryDy=0;exitX=0.75;exitY=0;exitDx=0;exitDy=0;" parent="1" source="rrnx5CU0nArCDklfMQSh-1" target="rrnx5CU0nArCDklfMQSh-20" edge="1">
          <mxGeometry width="50" height="50" relative="1" as="geometry">
            <mxPoint x="160" y="170" as="sourcePoint" />
            <mxPoint x="210" y="120" as="targetPoint" />
          </mxGeometry>
        </mxCell>
        <mxCell id="rrnx5CU0nArCDklfMQSh-22" value="" style="ellipse;whiteSpace=wrap;html=1;aspect=fixed;" parent="1" vertex="1">
          <mxGeometry x="135" y="90" width="10" height="10" as="geometry" />
        </mxCell>
        <mxCell id="rrnx5CU0nArCDklfMQSh-23" value="" style="ellipse;whiteSpace=wrap;html=1;aspect=fixed;" parent="1" vertex="1">
          <mxGeometry x="160" y="90" width="10" height="10" as="geometry" />
        </mxCell>
        <mxCell id="rrnx5CU0nArCDklfMQSh-24" value="" style="endArrow=none;html=1;rounded=0;entryX=0.5;entryY=1;entryDx=0;entryDy=0;exitX=1;exitY=0;exitDx=0;exitDy=0;" parent="1" source="rrnx5CU0nArCDklfMQSh-20" target="rrnx5CU0nArCDklfMQSh-23" edge="1">
          <mxGeometry width="50" height="50" relative="1" as="geometry">
            <mxPoint x="170" y="150" as="sourcePoint" />
            <mxPoint x="220" y="100" as="targetPoint" />
          </mxGeometry>
        </mxCell>
        <mxCell id="rrnx5CU0nArCDklfMQSh-25" value="" style="endArrow=none;html=1;rounded=0;entryX=0.5;entryY=1;entryDx=0;entryDy=0;exitX=0;exitY=0;exitDx=0;exitDy=0;" parent="1" source="rrnx5CU0nArCDklfMQSh-20" target="rrnx5CU0nArCDklfMQSh-22" edge="1">
          <mxGeometry width="50" height="50" relative="1" as="geometry">
            <mxPoint x="100" y="120" as="sourcePoint" />
            <mxPoint x="150" y="70" as="targetPoint" />
          </mxGeometry>
        </mxCell>
        <mxCell id="rrnx5CU0nArCDklfMQSh-26" value="" style="ellipse;whiteSpace=wrap;html=1;aspect=fixed;fillColor=#000000;" parent="1" vertex="1">
          <mxGeometry x="345" y="132" width="10" height="10" as="geometry" />
        </mxCell>
        <mxCell id="rrnx5CU0nArCDklfMQSh-27" value="" style="endArrow=none;html=1;rounded=0;entryX=0.5;entryY=1;entryDx=0;entryDy=0;exitX=0;exitY=0;exitDx=0;exitDy=0;" parent="1" source="rrnx5CU0nArCDklfMQSh-2" target="rrnx5CU0nArCDklfMQSh-26" edge="1">
          <mxGeometry width="50" height="50" relative="1" as="geometry">
            <mxPoint x="310" y="200" as="sourcePoint" />
            <mxPoint x="360" y="150" as="targetPoint" />
          </mxGeometry>
        </mxCell>
        <mxCell id="rrnx5CU0nArCDklfMQSh-28" value="" style="ellipse;whiteSpace=wrap;html=1;aspect=fixed;" parent="1" vertex="1">
          <mxGeometry x="370" y="132" width="10" height="10" as="geometry" />
        </mxCell>
        <mxCell id="rrnx5CU0nArCDklfMQSh-29" value="" style="endArrow=none;html=1;rounded=0;entryX=0.5;entryY=1;entryDx=0;entryDy=0;exitX=0.25;exitY=0;exitDx=0;exitDy=0;" parent="1" source="rrnx5CU0nArCDklfMQSh-2" target="rrnx5CU0nArCDklfMQSh-28" edge="1">
          <mxGeometry width="50" height="50" relative="1" as="geometry">
            <mxPoint x="340" y="200" as="sourcePoint" />
            <mxPoint x="390" y="150" as="targetPoint" />
          </mxGeometry>
        </mxCell>
        <mxCell id="rrnx5CU0nArCDklfMQSh-30" value="" style="ellipse;whiteSpace=wrap;html=1;aspect=fixed;" parent="1" vertex="1">
          <mxGeometry x="395" y="132" width="10" height="10" as="geometry" />
        </mxCell>
        <mxCell id="rrnx5CU0nArCDklfMQSh-31" value="" style="endArrow=none;html=1;rounded=0;entryX=0.5;entryY=1;entryDx=0;entryDy=0;exitX=0.5;exitY=0;exitDx=0;exitDy=0;" parent="1" source="rrnx5CU0nArCDklfMQSh-2" target="rrnx5CU0nArCDklfMQSh-30" edge="1">
          <mxGeometry width="50" height="50" relative="1" as="geometry">
            <mxPoint x="400" y="180" as="sourcePoint" />
            <mxPoint x="450" y="130" as="targetPoint" />
          </mxGeometry>
        </mxCell>
        <mxCell id="rrnx5CU0nArCDklfMQSh-32" value="" style="ellipse;whiteSpace=wrap;html=1;aspect=fixed;fillColor=#000000;" parent="1" vertex="1">
          <mxGeometry x="615" y="132" width="10" height="10" as="geometry" />
        </mxCell>
        <mxCell id="rrnx5CU0nArCDklfMQSh-33" value="" style="endArrow=none;html=1;rounded=0;entryX=0.5;entryY=1;entryDx=0;entryDy=0;exitX=0;exitY=0;exitDx=0;exitDy=0;" parent="1" source="rrnx5CU0nArCDklfMQSh-4" target="rrnx5CU0nArCDklfMQSh-32" edge="1">
          <mxGeometry width="50" height="50" relative="1" as="geometry">
            <mxPoint x="650" y="190" as="sourcePoint" />
            <mxPoint x="700" y="140" as="targetPoint" />
          </mxGeometry>
        </mxCell>
        <mxCell id="rrnx5CU0nArCDklfMQSh-34" value="" style="ellipse;whiteSpace=wrap;html=1;aspect=fixed;" parent="1" vertex="1">
          <mxGeometry x="640" y="132" width="10" height="10" as="geometry" />
        </mxCell>
        <mxCell id="rrnx5CU0nArCDklfMQSh-35" value="" style="endArrow=none;html=1;rounded=0;entryX=0.5;entryY=1;entryDx=0;entryDy=0;exitX=0.25;exitY=0;exitDx=0;exitDy=0;" parent="1" source="rrnx5CU0nArCDklfMQSh-4" target="rrnx5CU0nArCDklfMQSh-34" edge="1">
          <mxGeometry width="50" height="50" relative="1" as="geometry">
            <mxPoint x="650" y="210" as="sourcePoint" />
            <mxPoint x="700" y="160" as="targetPoint" />
          </mxGeometry>
        </mxCell>
        <mxCell id="rrnx5CU0nArCDklfMQSh-36" value="" style="ellipse;whiteSpace=wrap;html=1;aspect=fixed;" parent="1" vertex="1">
          <mxGeometry x="665" y="132" width="10" height="10" as="geometry" />
        </mxCell>
        <mxCell id="rrnx5CU0nArCDklfMQSh-37" value="" style="endArrow=none;html=1;rounded=0;entryX=0.5;entryY=1;entryDx=0;entryDy=0;exitX=0.5;exitY=0;exitDx=0;exitDy=0;" parent="1" source="rrnx5CU0nArCDklfMQSh-4" target="rrnx5CU0nArCDklfMQSh-36" edge="1">
          <mxGeometry width="50" height="50" relative="1" as="geometry">
            <mxPoint x="600" y="230" as="sourcePoint" />
            <mxPoint x="650" y="180" as="targetPoint" />
          </mxGeometry>
        </mxCell>
        <mxCell id="rrnx5CU0nArCDklfMQSh-38" value="" style="ellipse;whiteSpace=wrap;html=1;aspect=fixed;" parent="1" vertex="1">
          <mxGeometry x="690" y="132" width="10" height="10" as="geometry" />
        </mxCell>
        <mxCell id="rrnx5CU0nArCDklfMQSh-39" value="" style="endArrow=none;html=1;rounded=0;entryX=0.5;entryY=1;entryDx=0;entryDy=0;exitX=0.75;exitY=0;exitDx=0;exitDy=0;" parent="1" source="rrnx5CU0nArCDklfMQSh-4" target="rrnx5CU0nArCDklfMQSh-38" edge="1">
          <mxGeometry width="50" height="50" relative="1" as="geometry">
            <mxPoint x="580" y="230" as="sourcePoint" />
            <mxPoint x="630" y="180" as="targetPoint" />
          </mxGeometry>
        </mxCell>
        <mxCell id="rrnx5CU0nArCDklfMQSh-40" value="" style="ellipse;whiteSpace=wrap;html=1;aspect=fixed;fillColor=#000000;" parent="1" vertex="1">
          <mxGeometry x="615" y="312" width="10" height="10" as="geometry" />
        </mxCell>
        <mxCell id="rrnx5CU0nArCDklfMQSh-41" value="" style="endArrow=none;html=1;rounded=0;entryX=0.5;entryY=1;entryDx=0;entryDy=0;exitX=0;exitY=0;exitDx=0;exitDy=0;" parent="1" source="rrnx5CU0nArCDklfMQSh-3" target="rrnx5CU0nArCDklfMQSh-40" edge="1">
          <mxGeometry width="50" height="50" relative="1" as="geometry">
            <mxPoint x="540" y="350" as="sourcePoint" />
            <mxPoint x="590" y="300" as="targetPoint" />
          </mxGeometry>
        </mxCell>
        <mxCell id="rrnx5CU0nArCDklfMQSh-42" value="" style="ellipse;whiteSpace=wrap;html=1;aspect=fixed;" parent="1" vertex="1">
          <mxGeometry x="640" y="312" width="10" height="10" as="geometry" />
        </mxCell>
        <mxCell id="rrnx5CU0nArCDklfMQSh-43" value="" style="endArrow=none;html=1;rounded=0;entryX=0.5;entryY=1;entryDx=0;entryDy=0;exitX=0.25;exitY=0;exitDx=0;exitDy=0;" parent="1" source="rrnx5CU0nArCDklfMQSh-3" target="rrnx5CU0nArCDklfMQSh-42" edge="1">
          <mxGeometry width="50" height="50" relative="1" as="geometry">
            <mxPoint x="550" y="440" as="sourcePoint" />
            <mxPoint x="600" y="390" as="targetPoint" />
          </mxGeometry>
        </mxCell>
        <mxCell id="rrnx5CU0nArCDklfMQSh-44" value="" style="ellipse;whiteSpace=wrap;html=1;aspect=fixed;" parent="1" vertex="1">
          <mxGeometry x="665" y="312" width="10" height="10" as="geometry" />
        </mxCell>
        <mxCell id="rrnx5CU0nArCDklfMQSh-45" value="" style="endArrow=none;html=1;rounded=0;entryX=0.5;entryY=1;entryDx=0;entryDy=0;exitX=0.5;exitY=0;exitDx=0;exitDy=0;" parent="1" source="rrnx5CU0nArCDklfMQSh-3" target="rrnx5CU0nArCDklfMQSh-44" edge="1">
          <mxGeometry width="50" height="50" relative="1" as="geometry">
            <mxPoint x="570" y="450" as="sourcePoint" />
            <mxPoint x="620" y="400" as="targetPoint" />
          </mxGeometry>
        </mxCell>
        <mxCell id="rrnx5CU0nArCDklfMQSh-46" value="" style="ellipse;whiteSpace=wrap;html=1;aspect=fixed;" parent="1" vertex="1">
          <mxGeometry x="690" y="312" width="10" height="10" as="geometry" />
        </mxCell>
        <mxCell id="rrnx5CU0nArCDklfMQSh-47" value="" style="endArrow=none;html=1;rounded=0;entryX=0.5;entryY=1;entryDx=0;entryDy=0;exitX=0.75;exitY=0;exitDx=0;exitDy=0;" parent="1" source="rrnx5CU0nArCDklfMQSh-3" target="rrnx5CU0nArCDklfMQSh-46" edge="1">
          <mxGeometry width="50" height="50" relative="1" as="geometry">
            <mxPoint x="660" y="370" as="sourcePoint" />
            <mxPoint x="710" y="320" as="targetPoint" />
          </mxGeometry>
        </mxCell>
        <mxCell id="rrnx5CU0nArCDklfMQSh-48" value="" style="ellipse;whiteSpace=wrap;html=1;aspect=fixed;" parent="1" vertex="1">
          <mxGeometry x="715" y="313" width="10" height="10" as="geometry" />
        </mxCell>
        <mxCell id="rrnx5CU0nArCDklfMQSh-49" value="" style="endArrow=none;html=1;rounded=0;entryX=0.5;entryY=1;entryDx=0;entryDy=0;exitX=1;exitY=0;exitDx=0;exitDy=0;" parent="1" source="rrnx5CU0nArCDklfMQSh-3" target="rrnx5CU0nArCDklfMQSh-48" edge="1">
          <mxGeometry width="50" height="50" relative="1" as="geometry">
            <mxPoint x="690" y="380" as="sourcePoint" />
            <mxPoint x="740" y="330" as="targetPoint" />
          </mxGeometry>
        </mxCell>
        <mxCell id="rrnx5CU0nArCDklfMQSh-50" value="" style="ellipse;whiteSpace=wrap;html=1;aspect=fixed;fillColor=#000000;" parent="1" vertex="1">
          <mxGeometry x="509" y="479" width="10" height="10" as="geometry" />
        </mxCell>
        <mxCell id="rrnx5CU0nArCDklfMQSh-51" value="" style="endArrow=none;html=1;rounded=0;entryX=0.5;entryY=1;entryDx=0;entryDy=0;exitX=0;exitY=0;exitDx=0;exitDy=0;" parent="1" source="rrnx5CU0nArCDklfMQSh-7" target="rrnx5CU0nArCDklfMQSh-50" edge="1">
          <mxGeometry width="50" height="50" relative="1" as="geometry">
            <mxPoint x="449" y="540" as="sourcePoint" />
            <mxPoint x="499" y="490" as="targetPoint" />
          </mxGeometry>
        </mxCell>
        <mxCell id="rrnx5CU0nArCDklfMQSh-52" value="" style="ellipse;whiteSpace=wrap;html=1;aspect=fixed;" parent="1" vertex="1">
          <mxGeometry x="534" y="479" width="10" height="10" as="geometry" />
        </mxCell>
        <mxCell id="rrnx5CU0nArCDklfMQSh-53" value="" style="endArrow=none;html=1;rounded=0;entryX=0.5;entryY=1;entryDx=0;entryDy=0;exitX=0.25;exitY=0;exitDx=0;exitDy=0;" parent="1" source="rrnx5CU0nArCDklfMQSh-7" target="rrnx5CU0nArCDklfMQSh-52" edge="1">
          <mxGeometry width="50" height="50" relative="1" as="geometry">
            <mxPoint x="429" y="560" as="sourcePoint" />
            <mxPoint x="479" y="510" as="targetPoint" />
          </mxGeometry>
        </mxCell>
        <mxCell id="rrnx5CU0nArCDklfMQSh-54" value="" style="ellipse;whiteSpace=wrap;html=1;aspect=fixed;" parent="1" vertex="1">
          <mxGeometry x="559" y="479" width="10" height="10" as="geometry" />
        </mxCell>
        <mxCell id="rrnx5CU0nArCDklfMQSh-55" value="" style="endArrow=none;html=1;rounded=0;entryX=0.5;entryY=1;entryDx=0;entryDy=0;exitX=0.5;exitY=0;exitDx=0;exitDy=0;" parent="1" source="rrnx5CU0nArCDklfMQSh-7" target="rrnx5CU0nArCDklfMQSh-54" edge="1">
          <mxGeometry width="50" height="50" relative="1" as="geometry">
            <mxPoint x="499" y="540" as="sourcePoint" />
            <mxPoint x="549" y="490" as="targetPoint" />
          </mxGeometry>
        </mxCell>
        <mxCell id="rrnx5CU0nArCDklfMQSh-56" value="" style="ellipse;whiteSpace=wrap;html=1;aspect=fixed;" parent="1" vertex="1">
          <mxGeometry x="584" y="480" width="10" height="10" as="geometry" />
        </mxCell>
        <mxCell id="rrnx5CU0nArCDklfMQSh-57" value="" style="endArrow=none;html=1;rounded=0;entryX=0.5;entryY=1;entryDx=0;entryDy=0;exitX=0.75;exitY=0;exitDx=0;exitDy=0;" parent="1" source="rrnx5CU0nArCDklfMQSh-7" target="rrnx5CU0nArCDklfMQSh-56" edge="1">
          <mxGeometry width="50" height="50" relative="1" as="geometry">
            <mxPoint x="429" y="540" as="sourcePoint" />
            <mxPoint x="479" y="490" as="targetPoint" />
          </mxGeometry>
        </mxCell>
        <mxCell id="rrnx5CU0nArCDklfMQSh-58" value="" style="ellipse;whiteSpace=wrap;html=1;aspect=fixed;" parent="1" vertex="1">
          <mxGeometry x="609" y="480" width="10" height="10" as="geometry" />
        </mxCell>
        <mxCell id="rrnx5CU0nArCDklfMQSh-59" value="" style="endArrow=none;html=1;rounded=0;entryX=0.5;entryY=1;entryDx=0;entryDy=0;exitX=1;exitY=0;exitDx=0;exitDy=0;" parent="1" source="rrnx5CU0nArCDklfMQSh-7" target="rrnx5CU0nArCDklfMQSh-58" edge="1">
          <mxGeometry width="50" height="50" relative="1" as="geometry">
            <mxPoint x="469" y="550" as="sourcePoint" />
            <mxPoint x="519" y="500" as="targetPoint" />
          </mxGeometry>
        </mxCell>
        <mxCell id="rrnx5CU0nArCDklfMQSh-60" value="" style="ellipse;whiteSpace=wrap;html=1;aspect=fixed;fillColor=#030303;" parent="1" vertex="1">
          <mxGeometry x="345" y="312" width="10" height="10" as="geometry" />
        </mxCell>
        <mxCell id="rrnx5CU0nArCDklfMQSh-61" value="" style="endArrow=none;html=1;rounded=0;entryX=0.5;entryY=1;entryDx=0;entryDy=0;exitX=0;exitY=0;exitDx=0;exitDy=0;" parent="1" source="rrnx5CU0nArCDklfMQSh-5" target="rrnx5CU0nArCDklfMQSh-60" edge="1">
          <mxGeometry width="50" height="50" relative="1" as="geometry">
            <mxPoint x="330" y="380" as="sourcePoint" />
            <mxPoint x="380" y="330" as="targetPoint" />
          </mxGeometry>
        </mxCell>
        <mxCell id="rrnx5CU0nArCDklfMQSh-62" value="" style="ellipse;whiteSpace=wrap;html=1;aspect=fixed;" parent="1" vertex="1">
          <mxGeometry x="370" y="312" width="10" height="10" as="geometry" />
        </mxCell>
        <mxCell id="rrnx5CU0nArCDklfMQSh-63" value="" style="endArrow=none;html=1;rounded=0;entryX=0.5;entryY=1;entryDx=0;entryDy=0;exitX=0.25;exitY=0;exitDx=0;exitDy=0;" parent="1" source="rrnx5CU0nArCDklfMQSh-5" target="rrnx5CU0nArCDklfMQSh-62" edge="1">
          <mxGeometry width="50" height="50" relative="1" as="geometry">
            <mxPoint x="360" y="390" as="sourcePoint" />
            <mxPoint x="410" y="340" as="targetPoint" />
          </mxGeometry>
        </mxCell>
        <mxCell id="rrnx5CU0nArCDklfMQSh-64" value="" style="ellipse;whiteSpace=wrap;html=1;aspect=fixed;" parent="1" vertex="1">
          <mxGeometry x="395" y="312" width="10" height="10" as="geometry" />
        </mxCell>
        <mxCell id="rrnx5CU0nArCDklfMQSh-65" value="" style="endArrow=none;html=1;rounded=0;entryX=0.5;entryY=1;entryDx=0;entryDy=0;exitX=0.5;exitY=0;exitDx=0;exitDy=0;" parent="1" source="rrnx5CU0nArCDklfMQSh-5" target="rrnx5CU0nArCDklfMQSh-64" edge="1">
          <mxGeometry width="50" height="50" relative="1" as="geometry">
            <mxPoint x="290" y="450" as="sourcePoint" />
            <mxPoint x="340" y="400" as="targetPoint" />
          </mxGeometry>
        </mxCell>
        <mxCell id="rrnx5CU0nArCDklfMQSh-66" value="" style="ellipse;whiteSpace=wrap;html=1;aspect=fixed;fillColor=#000000;" parent="1" vertex="1">
          <mxGeometry x="75" y="312" width="10" height="10" as="geometry" />
        </mxCell>
        <mxCell id="rrnx5CU0nArCDklfMQSh-67" value="" style="endArrow=none;html=1;rounded=0;entryX=0.5;entryY=1;entryDx=0;entryDy=0;exitX=0;exitY=0;exitDx=0;exitDy=0;" parent="1" source="rrnx5CU0nArCDklfMQSh-6" target="rrnx5CU0nArCDklfMQSh-66" edge="1">
          <mxGeometry width="50" height="50" relative="1" as="geometry">
            <mxPoint x="10" y="400" as="sourcePoint" />
            <mxPoint x="60" y="350" as="targetPoint" />
          </mxGeometry>
        </mxCell>
        <mxCell id="rrnx5CU0nArCDklfMQSh-68" value="" style="ellipse;whiteSpace=wrap;html=1;aspect=fixed;" parent="1" vertex="1">
          <mxGeometry x="100" y="312" width="10" height="10" as="geometry" />
        </mxCell>
        <mxCell id="rrnx5CU0nArCDklfMQSh-69" value="" style="endArrow=none;html=1;rounded=0;entryX=0.5;entryY=1;entryDx=0;entryDy=0;exitX=0.25;exitY=0;exitDx=0;exitDy=0;" parent="1" source="rrnx5CU0nArCDklfMQSh-6" target="rrnx5CU0nArCDklfMQSh-68" edge="1">
          <mxGeometry width="50" height="50" relative="1" as="geometry">
            <mxPoint x="90" y="360" as="sourcePoint" />
            <mxPoint x="140" y="310" as="targetPoint" />
          </mxGeometry>
        </mxCell>
        <mxCell id="rrnx5CU0nArCDklfMQSh-70" value="" style="ellipse;whiteSpace=wrap;html=1;aspect=fixed;" parent="1" vertex="1">
          <mxGeometry x="125" y="312" width="10" height="10" as="geometry" />
        </mxCell>
        <mxCell id="rrnx5CU0nArCDklfMQSh-71" value="" style="endArrow=none;html=1;rounded=0;entryX=0.5;entryY=1;entryDx=0;entryDy=0;exitX=0.5;exitY=0;exitDx=0;exitDy=0;" parent="1" source="rrnx5CU0nArCDklfMQSh-6" target="rrnx5CU0nArCDklfMQSh-70" edge="1">
          <mxGeometry width="50" height="50" relative="1" as="geometry">
            <mxPoint x="150" y="360" as="sourcePoint" />
            <mxPoint x="200" y="310" as="targetPoint" />
          </mxGeometry>
        </mxCell>
        <mxCell id="rrnx5CU0nArCDklfMQSh-72" value="" style="ellipse;whiteSpace=wrap;html=1;aspect=fixed;" parent="1" vertex="1">
          <mxGeometry x="150" y="313" width="10" height="10" as="geometry" />
        </mxCell>
        <mxCell id="rrnx5CU0nArCDklfMQSh-73" value="" style="endArrow=none;html=1;rounded=0;entryX=0.5;entryY=1;entryDx=0;entryDy=0;exitX=0.75;exitY=0;exitDx=0;exitDy=0;" parent="1" source="rrnx5CU0nArCDklfMQSh-6" target="rrnx5CU0nArCDklfMQSh-72" edge="1">
          <mxGeometry width="50" height="50" relative="1" as="geometry">
            <mxPoint x="120" y="420" as="sourcePoint" />
            <mxPoint x="170" y="370" as="targetPoint" />
          </mxGeometry>
        </mxCell>
        <mxCell id="rrnx5CU0nArCDklfMQSh-74" value="" style="endArrow=none;html=1;rounded=0;exitX=1;exitY=0.5;exitDx=0;exitDy=0;exitPerimeter=0;entryX=0;entryY=0.5;entryDx=0;entryDy=0;" parent="1" source="rrnx5CU0nArCDklfMQSh-1" target="rrnx5CU0nArCDklfMQSh-8" edge="1">
          <mxGeometry width="50" height="50" relative="1" as="geometry">
            <mxPoint x="150" y="270" as="sourcePoint" />
            <mxPoint x="200" y="220" as="targetPoint" />
          </mxGeometry>
        </mxCell>
        <mxCell id="rrnx5CU0nArCDklfMQSh-75" value="" style="endArrow=none;html=1;rounded=0;exitX=1;exitY=0.5;exitDx=0;exitDy=0;entryX=0;entryY=0.5;entryDx=0;entryDy=0;" parent="1" source="rrnx5CU0nArCDklfMQSh-8" target="rrnx5CU0nArCDklfMQSh-2" edge="1">
          <mxGeometry width="50" height="50" relative="1" as="geometry">
            <mxPoint x="180" y="190" as="sourcePoint" />
            <mxPoint x="230" y="190" as="targetPoint" />
          </mxGeometry>
        </mxCell>
        <mxCell id="rrnx5CU0nArCDklfMQSh-76" value="" style="endArrow=none;html=1;rounded=0;exitX=1;exitY=0.5;exitDx=0;exitDy=0;entryX=0;entryY=0.5;entryDx=0;entryDy=0;" parent="1" source="rrnx5CU0nArCDklfMQSh-2" target="rrnx5CU0nArCDklfMQSh-9" edge="1">
          <mxGeometry width="50" height="50" relative="1" as="geometry">
            <mxPoint x="460" y="250" as="sourcePoint" />
            <mxPoint x="510" y="200" as="targetPoint" />
          </mxGeometry>
        </mxCell>
        <mxCell id="rrnx5CU0nArCDklfMQSh-77" value="" style="endArrow=none;html=1;rounded=0;exitX=1;exitY=0.5;exitDx=0;exitDy=0;entryX=0;entryY=0.5;entryDx=0;entryDy=0;" parent="1" source="rrnx5CU0nArCDklfMQSh-9" target="rrnx5CU0nArCDklfMQSh-4" edge="1">
          <mxGeometry width="50" height="50" relative="1" as="geometry">
            <mxPoint x="460" y="190" as="sourcePoint" />
            <mxPoint x="510" y="190" as="targetPoint" />
          </mxGeometry>
        </mxCell>
        <mxCell id="rrnx5CU0nArCDklfMQSh-78" value="" style="endArrow=none;html=1;rounded=0;exitX=0.5;exitY=0;exitDx=0;exitDy=0;entryX=1;entryY=0.5;entryDx=0;entryDy=0;" parent="1" source="rrnx5CU0nArCDklfMQSh-10" target="rrnx5CU0nArCDklfMQSh-4" edge="1">
          <mxGeometry width="50" height="50" relative="1" as="geometry">
            <mxPoint x="780" y="200" as="sourcePoint" />
            <mxPoint x="830" y="150" as="targetPoint" />
            <Array as="points">
              <mxPoint x="770" y="180" />
            </Array>
          </mxGeometry>
        </mxCell>
        <mxCell id="rrnx5CU0nArCDklfMQSh-79" value="" style="endArrow=none;html=1;rounded=0;exitX=1;exitY=0.5;exitDx=0;exitDy=0;entryX=0.5;entryY=1;entryDx=0;entryDy=0;" parent="1" source="rrnx5CU0nArCDklfMQSh-3" target="rrnx5CU0nArCDklfMQSh-10" edge="1">
          <mxGeometry width="50" height="50" relative="1" as="geometry">
            <mxPoint x="770" y="360" as="sourcePoint" />
            <mxPoint x="820" y="310" as="targetPoint" />
            <Array as="points">
              <mxPoint x="770" y="360" />
            </Array>
          </mxGeometry>
        </mxCell>
        <mxCell id="rrnx5CU0nArCDklfMQSh-80" value="" style="endArrow=none;html=1;rounded=0;entryX=0.5;entryY=1;entryDx=0;entryDy=0;exitX=0.5;exitY=0;exitDx=0;exitDy=0;" parent="1" source="rrnx5CU0nArCDklfMQSh-11" target="rrnx5CU0nArCDklfMQSh-3" edge="1">
          <mxGeometry width="50" height="50" relative="1" as="geometry">
            <mxPoint x="730" y="530" as="sourcePoint" />
            <mxPoint x="780" y="480" as="targetPoint" />
          </mxGeometry>
        </mxCell>
        <mxCell id="rrnx5CU0nArCDklfMQSh-81" value="" style="endArrow=none;html=1;rounded=0;entryX=0.5;entryY=1;entryDx=0;entryDy=0;exitX=1;exitY=0.5;exitDx=0;exitDy=0;" parent="1" source="rrnx5CU0nArCDklfMQSh-7" target="rrnx5CU0nArCDklfMQSh-11" edge="1">
          <mxGeometry width="50" height="50" relative="1" as="geometry">
            <mxPoint x="710" y="540" as="sourcePoint" />
            <mxPoint x="760" y="490" as="targetPoint" />
            <Array as="points">
              <mxPoint x="670" y="531" />
            </Array>
          </mxGeometry>
        </mxCell>
        <mxCell id="rrnx5CU0nArCDklfMQSh-82" value="" style="endArrow=none;html=1;rounded=0;entryX=0;entryY=0.5;entryDx=0;entryDy=0;exitX=1;exitY=0.5;exitDx=0;exitDy=0;" parent="1" source="rrnx5CU0nArCDklfMQSh-12" target="rrnx5CU0nArCDklfMQSh-3" edge="1">
          <mxGeometry width="50" height="50" relative="1" as="geometry">
            <mxPoint x="400" y="440" as="sourcePoint" />
            <mxPoint x="450" y="390" as="targetPoint" />
          </mxGeometry>
        </mxCell>
        <mxCell id="rrnx5CU0nArCDklfMQSh-83" value="" style="endArrow=none;html=1;rounded=0;entryX=0;entryY=0.5;entryDx=0;entryDy=0;exitX=1;exitY=0.5;exitDx=0;exitDy=0;" parent="1" source="rrnx5CU0nArCDklfMQSh-5" target="rrnx5CU0nArCDklfMQSh-12" edge="1">
          <mxGeometry width="50" height="50" relative="1" as="geometry">
            <mxPoint x="450" y="420" as="sourcePoint" />
            <mxPoint x="500" y="370" as="targetPoint" />
          </mxGeometry>
        </mxCell>
        <mxCell id="rrnx5CU0nArCDklfMQSh-84" value="" style="endArrow=none;html=1;rounded=0;entryX=0;entryY=0.5;entryDx=0;entryDy=0;exitX=1;exitY=0.5;exitDx=0;exitDy=0;" parent="1" source="rrnx5CU0nArCDklfMQSh-13" target="rrnx5CU0nArCDklfMQSh-5" edge="1">
          <mxGeometry width="50" height="50" relative="1" as="geometry">
            <mxPoint x="300" y="440" as="sourcePoint" />
            <mxPoint x="350" y="390" as="targetPoint" />
          </mxGeometry>
        </mxCell>
        <mxCell id="rrnx5CU0nArCDklfMQSh-85" value="" style="endArrow=none;html=1;rounded=0;entryX=0;entryY=0.5;entryDx=0;entryDy=0;exitX=1;exitY=0.5;exitDx=0;exitDy=0;" parent="1" source="rrnx5CU0nArCDklfMQSh-6" target="rrnx5CU0nArCDklfMQSh-13" edge="1">
          <mxGeometry width="50" height="50" relative="1" as="geometry">
            <mxPoint x="240" y="450" as="sourcePoint" />
            <mxPoint x="290" y="400" as="targetPoint" />
          </mxGeometry>
        </mxCell>
        <mxCell id="rrnx5CU0nArCDklfMQSh-86" value="cpf" style="text;html=1;align=center;verticalAlign=middle;whiteSpace=wrap;rounded=0;rotation=-90;" parent="1" vertex="1">
          <mxGeometry x="55" y="100" width="30" height="18" as="geometry" />
        </mxCell>
        <mxCell id="rrnx5CU0nArCDklfMQSh-87" value="email" style="text;html=1;align=center;verticalAlign=middle;whiteSpace=wrap;rounded=0;rotation=-90;" parent="1" vertex="1">
          <mxGeometry x="78" y="93" width="30" height="18" as="geometry" />
        </mxCell>
        <mxCell id="rrnx5CU0nArCDklfMQSh-88" value="nome" style="text;html=1;align=center;verticalAlign=middle;whiteSpace=wrap;rounded=0;rotation=-90;" parent="1" vertex="1">
          <mxGeometry x="101" y="93" width="30" height="18" as="geometry" />
        </mxCell>
        <mxCell id="rrnx5CU0nArCDklfMQSh-89" value="contato" style="text;html=1;align=center;verticalAlign=middle;whiteSpace=wrap;rounded=0;rotation=0;" parent="1" vertex="1">
          <mxGeometry x="160" y="118" width="30" height="18" as="geometry" />
        </mxCell>
        <mxCell id="rrnx5CU0nArCDklfMQSh-90" value="celular" style="text;html=1;align=center;verticalAlign=middle;whiteSpace=wrap;rounded=0;rotation=-90;" parent="1" vertex="1">
          <mxGeometry x="122.5" y="57.5" width="35" height="18" as="geometry" />
        </mxCell>
        <mxCell id="rrnx5CU0nArCDklfMQSh-91" value="tefefone" style="text;html=1;align=center;verticalAlign=middle;whiteSpace=wrap;rounded=0;rotation=-90;" parent="1" vertex="1">
          <mxGeometry x="143.75" y="53.75" width="42.5" height="18" as="geometry" />
        </mxCell>
        <mxCell id="rrnx5CU0nArCDklfMQSh-92" value="ID_login" style="text;html=1;align=center;verticalAlign=middle;whiteSpace=wrap;rounded=0;rotation=-90;" parent="1" vertex="1">
          <mxGeometry x="327.5" y="90" width="45" height="18" as="geometry" />
        </mxCell>
        <mxCell id="rrnx5CU0nArCDklfMQSh-93" value="gerente?" style="text;html=1;align=center;verticalAlign=middle;whiteSpace=wrap;rounded=0;rotation=-90;" parent="1" vertex="1">
          <mxGeometry x="350" y="86" width="50" height="18" as="geometry" />
        </mxCell>
        <mxCell id="rrnx5CU0nArCDklfMQSh-94" value="senha" style="text;html=1;align=center;verticalAlign=middle;whiteSpace=wrap;rounded=0;rotation=-90;" parent="1" vertex="1">
          <mxGeometry x="374" y="90" width="50" height="18" as="geometry" />
        </mxCell>
        <mxCell id="rrnx5CU0nArCDklfMQSh-95" value="ID_login" style="text;html=1;align=center;verticalAlign=middle;whiteSpace=wrap;rounded=0;rotation=-90;" parent="1" vertex="1">
          <mxGeometry x="595" y="86" width="45" height="18" as="geometry" />
        </mxCell>
        <mxCell id="rrnx5CU0nArCDklfMQSh-96" value="aprovado" style="text;html=1;align=center;verticalAlign=middle;whiteSpace=wrap;rounded=0;rotation=-90;" parent="1" vertex="1">
          <mxGeometry x="622.5" y="86" width="45" height="18" as="geometry" />
        </mxCell>
        <mxCell id="rrnx5CU0nArCDklfMQSh-97" value="recusado" style="text;html=1;align=center;verticalAlign=middle;whiteSpace=wrap;rounded=0;rotation=-90;" parent="1" vertex="1">
          <mxGeometry x="647.5" y="86" width="45" height="18" as="geometry" />
        </mxCell>
        <mxCell id="rrnx5CU0nArCDklfMQSh-98" value="campo" style="text;html=1;align=center;verticalAlign=middle;whiteSpace=wrap;rounded=0;rotation=-90;" parent="1" vertex="1">
          <mxGeometry x="672.5" y="90" width="45" height="18" as="geometry" />
        </mxCell>
        <mxCell id="rrnx5CU0nArCDklfMQSh-99" value="ID_campo" style="text;html=1;align=center;verticalAlign=middle;whiteSpace=wrap;rounded=0;rotation=-90;" parent="1" vertex="1">
          <mxGeometry x="597.5" y="270" width="45" height="18" as="geometry" />
        </mxCell>
        <mxCell id="rrnx5CU0nArCDklfMQSh-100" value="ID_alimennto" style="text;html=1;align=center;verticalAlign=middle;whiteSpace=wrap;rounded=0;rotation=-90;" parent="1" vertex="1">
          <mxGeometry x="327.5" y="262" width="45" height="18" as="geometry" />
        </mxCell>
        <mxCell id="rrnx5CU0nArCDklfMQSh-101" value="ID_crt_alimento" style="text;html=1;align=center;verticalAlign=middle;whiteSpace=wrap;rounded=0;rotation=-90;" parent="1" vertex="1">
          <mxGeometry x="57.5" y="256" width="45" height="18" as="geometry" />
        </mxCell>
        <mxCell id="rrnx5CU0nArCDklfMQSh-102" value="ID_localizacao" style="text;html=1;align=center;verticalAlign=middle;whiteSpace=wrap;rounded=0;rotation=-90;" parent="1" vertex="1">
          <mxGeometry x="491.5" y="425" width="45" height="18" as="geometry" />
        </mxCell>
        <mxCell id="rrnx5CU0nArCDklfMQSh-103" value="descricao" style="text;html=1;align=center;verticalAlign=middle;whiteSpace=wrap;rounded=0;rotation=-90;" parent="1" vertex="1">
          <mxGeometry x="82.5" y="256" width="45" height="18" as="geometry" />
        </mxCell>
        <mxCell id="rrnx5CU0nArCDklfMQSh-104" value="nome_tec" style="text;html=1;align=center;verticalAlign=middle;whiteSpace=wrap;rounded=0;rotation=-90;" parent="1" vertex="1">
          <mxGeometry x="108" y="256" width="45" height="18" as="geometry" />
        </mxCell>
        <mxCell id="rrnx5CU0nArCDklfMQSh-105" value="tempo" style="text;html=1;align=center;verticalAlign=middle;whiteSpace=wrap;rounded=0;rotation=-90;" parent="1" vertex="1">
          <mxGeometry x="131" y="262" width="45" height="18" as="geometry" />
        </mxCell>
        <mxCell id="rrnx5CU0nArCDklfMQSh-106" value="nome_pop" style="text;html=1;align=center;verticalAlign=middle;whiteSpace=wrap;rounded=0;rotation=-90;" parent="1" vertex="1">
          <mxGeometry x="352.5" y="270" width="45" height="18" as="geometry" />
        </mxCell>
        <mxCell id="rrnx5CU0nArCDklfMQSh-107" value="producao" style="text;html=1;align=center;verticalAlign=middle;whiteSpace=wrap;rounded=0;rotation=-90;" parent="1" vertex="1">
          <mxGeometry x="377.5" y="274" width="45" height="18" as="geometry" />
        </mxCell>
        <mxCell id="rrnx5CU0nArCDklfMQSh-108" value="tempo" style="text;html=1;align=center;verticalAlign=middle;whiteSpace=wrap;rounded=0;rotation=-90;" parent="1" vertex="1">
          <mxGeometry x="623.5" y="269" width="45" height="20" as="geometry" />
        </mxCell>
        <mxCell id="rrnx5CU0nArCDklfMQSh-109" value="estado" style="text;html=1;align=center;verticalAlign=middle;whiteSpace=wrap;rounded=0;rotation=-90;" parent="1" vertex="1">
          <mxGeometry x="516.5" y="431" width="45" height="18" as="geometry" />
        </mxCell>
        <mxCell id="rrnx5CU0nArCDklfMQSh-110" value="pais" style="text;html=1;align=center;verticalAlign=middle;whiteSpace=wrap;rounded=0;rotation=-90;" parent="1" vertex="1">
          <mxGeometry x="539" y="431" width="45" height="18" as="geometry" />
        </mxCell>
        <mxCell id="rrnx5CU0nArCDklfMQSh-111" value="cidade" style="text;html=1;align=center;verticalAlign=middle;whiteSpace=wrap;rounded=0;rotation=-90;" parent="1" vertex="1">
          <mxGeometry x="559" y="431" width="45" height="18" as="geometry" />
        </mxCell>
        <mxCell id="rrnx5CU0nArCDklfMQSh-112" value="cep" style="text;html=1;align=center;verticalAlign=middle;whiteSpace=wrap;rounded=0;rotation=-90;" parent="1" vertex="1">
          <mxGeometry x="584" y="431" width="45" height="18" as="geometry" />
        </mxCell>
        <mxCell id="rrnx5CU0nArCDklfMQSh-113" value="descricao" style="text;html=1;align=center;verticalAlign=middle;whiteSpace=wrap;rounded=0;rotation=-90;" parent="1" vertex="1">
          <mxGeometry x="647.5" y="269" width="45" height="20" as="geometry" />
        </mxCell>
        <mxCell id="rrnx5CU0nArCDklfMQSh-114" value="quantidade_A" style="text;html=1;align=center;verticalAlign=middle;whiteSpace=wrap;rounded=0;rotation=-90;" parent="1" vertex="1">
          <mxGeometry x="667.5" y="256" width="45" height="20" as="geometry" />
        </mxCell>
        <mxCell id="rrnx5CU0nArCDklfMQSh-115" value="produto" style="text;html=1;align=center;verticalAlign=middle;whiteSpace=wrap;rounded=0;rotation=-90;" parent="1" vertex="1">
          <mxGeometry x="697.5" y="272" width="45" height="20" as="geometry" />
        </mxCell>
        <mxCell id="rrnx5CU0nArCDklfMQSh-116" value="(0, 1)" style="text;html=1;align=center;verticalAlign=middle;whiteSpace=wrap;rounded=0;rotation=0;" parent="1" vertex="1">
          <mxGeometry x="176" y="160" width="30" height="18" as="geometry" />
        </mxCell>
        <mxCell id="rrnx5CU0nArCDklfMQSh-117" value="(1, n)" style="text;html=1;align=center;verticalAlign=middle;whiteSpace=wrap;rounded=0;rotation=0;" parent="1" vertex="1">
          <mxGeometry x="315" y="160" width="30" height="18" as="geometry" />
        </mxCell>
        <mxCell id="rrnx5CU0nArCDklfMQSh-118" value="(0, 1)" style="text;html=1;align=center;verticalAlign=middle;whiteSpace=wrap;rounded=0;rotation=0;" parent="1" vertex="1">
          <mxGeometry x="460" y="160" width="30" height="18" as="geometry" />
        </mxCell>
        <mxCell id="rrnx5CU0nArCDklfMQSh-119" value="(0, 1)" style="text;html=1;align=center;verticalAlign=middle;whiteSpace=wrap;rounded=0;rotation=0;" parent="1" vertex="1">
          <mxGeometry x="590" y="160" width="30" height="18" as="geometry" />
        </mxCell>
        <mxCell id="rrnx5CU0nArCDklfMQSh-120" value="(1, n)" style="text;html=1;align=center;verticalAlign=middle;whiteSpace=wrap;rounded=0;rotation=0;" parent="1" vertex="1">
          <mxGeometry x="725" y="160" width="30" height="18" as="geometry" />
        </mxCell>
        <mxCell id="rrnx5CU0nArCDklfMQSh-121" value="(0, 1)" style="text;html=1;align=center;verticalAlign=middle;whiteSpace=wrap;rounded=0;rotation=0;" parent="1" vertex="1">
          <mxGeometry x="725" y="340" width="30" height="18" as="geometry" />
        </mxCell>
        <mxCell id="rrnx5CU0nArCDklfMQSh-122" value="(1, 1)" style="text;html=1;align=center;verticalAlign=middle;whiteSpace=wrap;rounded=0;rotation=0;" parent="1" vertex="1">
          <mxGeometry x="617.5" y="510" width="30" height="18" as="geometry" />
        </mxCell>
        <mxCell id="rrnx5CU0nArCDklfMQSh-123" value="(1, 1)" style="text;html=1;align=center;verticalAlign=middle;whiteSpace=wrap;rounded=0;rotation=0;" parent="1" vertex="1">
          <mxGeometry x="635" y="380" width="30" height="18" as="geometry" />
        </mxCell>
        <mxCell id="rrnx5CU0nArCDklfMQSh-124" value="(1, n)" style="text;html=1;align=center;verticalAlign=middle;whiteSpace=wrap;rounded=0;rotation=0;" parent="1" vertex="1">
          <mxGeometry x="585" y="340" width="30" height="18" as="geometry" />
        </mxCell>
        <mxCell id="rrnx5CU0nArCDklfMQSh-125" value="(1, 1)" style="text;html=1;align=center;verticalAlign=middle;whiteSpace=wrap;rounded=0;rotation=0;" parent="1" vertex="1">
          <mxGeometry x="450" y="340" width="30" height="18" as="geometry" />
        </mxCell>
        <mxCell id="rrnx5CU0nArCDklfMQSh-126" value="(1, n)" style="text;html=1;align=center;verticalAlign=middle;whiteSpace=wrap;rounded=0;rotation=0;" parent="1" vertex="1">
          <mxGeometry x="320" y="340" width="30" height="18" as="geometry" />
        </mxCell>
        <mxCell id="rrnx5CU0nArCDklfMQSh-127" value="(0, n)" style="text;html=1;align=center;verticalAlign=middle;whiteSpace=wrap;rounded=0;rotation=0;" parent="1" vertex="1">
          <mxGeometry x="180" y="340" width="30" height="18" as="geometry" />
        </mxCell>
      </root>
    </mxGraphModel>
  </diagram>
</mxfile>
